<svg xmlns="http://www.w3.org/2000/svg" width="429.518" height="345.733" viewBox="0 0 429.518 345.733">
  <g id="mission" transform="translate(-716.003 -999.267)">
    <g id="Ellipse_225" data-name="Ellipse 225" transform="translate(888 1117)" fill="#fff" stroke="#fd843f" stroke-width="2">
      <circle cx="74" cy="74" r="74" stroke="none"/>
      <circle cx="74" cy="74" r="73" fill="none"/>
    </g>
    <g id="Ellipse_223" data-name="Ellipse 223" transform="translate(808 1039)" fill="#fff" stroke="#fd843f" stroke-width="2">
      <circle cx="153" cy="153" r="153" stroke="none"/>
      <circle cx="153" cy="153" r="152" fill="none"/>
    </g>
    <g id="Ellipse_224" data-name="Ellipse 224" transform="translate(850 1081)" fill="#fff" stroke="#fd843f" stroke-width="2">
      <circle cx="111" cy="111" r="111" stroke="none"/>
      <circle cx="111" cy="111" r="110" fill="none"/>
    </g>
    <g id="Ellipse_226" data-name="Ellipse 226" transform="translate(888 1117)" fill="#fff" stroke="#fd843f" stroke-width="2">
      <circle cx="74" cy="74" r="74" stroke="none"/>
      <circle cx="74" cy="74" r="73" fill="none"/>
    </g>
    <g id="Ellipse_227" data-name="Ellipse 227" transform="translate(925 1155)" fill="#fff" stroke="#fd843f" stroke-width="2">
      <circle cx="36" cy="36" r="36" stroke="none"/>
      <circle cx="36" cy="36" r="35" fill="none"/>
    </g>
    <g id="Group_165274" data-name="Group 165274" transform="translate(719.812 952.671)">
      <path id="Path_88075" data-name="Path 88075" d="M356.988,207.488A149.953,149.953,0,1,0,207.039,357.441,149.947,149.947,0,0,0,356.988,207.488" transform="translate(33.257 33.523)" fill="none"/>
      <path id="Path_88081" data-name="Path 88081" d="M191.1,162.847a28.7,28.7,0,1,0-28.7,28.715,28.706,28.706,0,0,0,28.7-28.715" transform="translate(77.898 78.16)" fill="#fff"/>
      <path id="Path_88084" data-name="Path 88084" d="M30.864,40.841,1.078,19.813l15.68-3.054L19.82,1.077,40.342,31.553l-.369,8.42Z" transform="translate(46.018 45.519)" fill="#fd843f"/>
      <line id="Line_140" data-name="Line 140" x1="11.751" y2="11.759" transform="translate(234.42 235.133)" fill="#fff"/>
    </g>
    <path id="Path_88085" data-name="Path 88085" d="M0,0,149.625,146.953l5.9,5.934-8.162,8.465,14.764-15.606" transform="translate(804.5 1036.324)" fill="none" stroke="#fd843f" stroke-width="2"/>
    <path id="Path_20507" data-name="Path 20507" d="M271.854,427.115c.982-7.133-9.086-13-16.65-13.611-3.608-.291-7.355.26-10.773-.931-7.4-2.58-10.362-12.146-17.587-15.194-5.4-2.279-11.621-.25-16.858,2.385s-10.411,5.952-16.262,6.327c-5.089.326-10.616-1.561-15.068.925-3.317,1.852-5.055,5.675-8.114,7.93-2.991,2.207-6.895,2.674-10.606,2.877s-7.555.239-10.935,1.786-6.176,5.122-5.475,8.772Z" transform="translate(573.094 751.475)" fill="#fff" stroke="#fd843f" stroke-width="1"/>
    <path id="Path_88086" data-name="Path 88086" d="M271.854,427.115c.982-7.133-9.086-13-16.65-13.611-3.608-.291-7.355.26-10.773-.931-7.4-2.58-10.362-12.146-17.587-15.194-5.4-2.279-11.621-.25-16.858,2.385s-10.411,5.952-16.262,6.327c-5.089.326-10.616-1.561-15.068.925-3.317,1.852-5.055,5.675-8.114,7.93-2.991,2.207-6.895,2.674-10.606,2.877s-7.555.239-10.935,1.786-6.176,5.122-5.475,8.772Z" transform="translate(873.094 881.397)" fill="#fff" stroke="#fd843f" stroke-width="1"/>
  </g>
</svg>
