<svg xmlns="http://www.w3.org/2000/svg" xmlns:xlink="http://www.w3.org/1999/xlink" width="491.805" height="526.153" viewBox="0 0 491.805 526.153">
  <defs>
    <clipPath id="clip-path">
      <rect id="Rectangle_149600" data-name="Rectangle 149600" width="332.473" height="360.06" fill="none" stroke="#fd843f" stroke-width="1"/>
    </clipPath>
    <clipPath id="clip-path-2">
      <rect id="Rectangle_149725" data-name="Rectangle 149725" width="200.25" height="117.25" fill="none"/>
    </clipPath>
  </defs>
  <g id="vision" transform="translate(-701.861 -1743.479)">
    <g id="Group_165277" data-name="Group 165277" transform="translate(781.527 1826.526)">
      <g id="Group_164970" data-name="Group 164970" clip-path="url(#clip-path)">
        <path id="Path_21712" data-name="Path 21712" d="M444.691,137.9C457.7,143.945,470,149.651,482.3,155.385c20.771,9.69,41.59,19.281,62.218,29.264,2.295,1.11,4.947,4.491,4.964,6.836.3,41.427.21,82.856.188,124.285a31.308,31.308,0,0,1-.414,3.331c-1.885-.763-3.573-1.3-5.124-2.1-31.506-16.2-63.04-32.341-94.405-48.805-2.487-1.306-5.365-4.871-5.385-7.409-.326-39.806-.214-79.615-.186-119.423a33.1,33.1,0,0,1,.539-3.47" transform="translate(-267.919 -83.19)" fill="none" stroke="#fd843f" stroke-width="1"/>
        <path id="Path_21713" data-name="Path 21713" d="M236.947,138.159c.161,2.744.358,4.534.359,6.324q.027,57.625.069,115.25c.009,3.778-.667,6.3-4.5,8.266-32.127,16.5-64.122,33.26-96.165,49.926-.974.506-2.037.841-3.771,1.544-.145-2.849-.353-5.06-.355-7.271-.02-39.343.108-78.686-.155-118.027-.037-5.519,1.794-8.024,6.717-10.3,30.265-13.974,60.346-28.343,90.5-42.562,2.217-1.045,4.5-1.948,7.306-3.154" transform="translate(-79.888 -83.347)" fill="none" stroke="#fd843f" stroke-width="1"/>
        <path id="Path_21714" data-name="Path 21714" d="M157.431,487.924c-2.982-1.354-5.069-2.176-7.042-3.217Q78.48,446.781,6.537,408.92C1.83,406.458-.022,403.86,0,398.368c.233-59.5.146-119,.146-178.5v-7.918c13.395,6.563,25.9,12.454,38.08,18.944,1.582.843,2.113,4.772,2.12,7.275.122,45.145.214,90.291-.061,135.434-.036,5.953,1.9,8.834,7.107,11.589C82.2,403.6,116.749,422.491,151.5,441c4.481,2.386,6.226,5.086,6.054,10.206-.4,11.931-.128,23.885-.128,36.723" transform="translate(0 -127.865)" fill="none" stroke="#fd843f" stroke-width="1"/>
        <path id="Path_21715" data-name="Path 21715" d="M599.944,212.4c.18,3.268.411,5.507.411,7.747q.03,89.287.055,178.575c0,4.108-.28,7.26-4.735,9.605q-73.2,38.53-146.19,77.466c-1.366.725-2.839,1.246-5.291,2.309,0-14.4-.221-27.981.264-41.531.065-1.812,3.46-3.951,5.728-5.171,34.9-18.76,69.792-37.55,104.914-55.9,5.617-2.934,7.177-6.246,7.142-12.28-.258-44.932-.067-89.866-.244-134.8-.019-4.811,1.348-7.434,5.829-9.549,10.6-5,20.883-10.657,32.118-16.475" transform="translate(-267.938 -128.132)" fill="none" stroke="#fd843f" stroke-width="1"/>
        <path id="Path_21716" data-name="Path 21716" d="M375.706,558.366c-4.285,2.177-8.106,4.18-11.98,6.075-28.716,14.054-57.393,28.191-86.244,41.964-2.832,1.352-7.406,1.721-10.065.372-29.96-15.2-59.706-30.818-89.5-46.339-.991-.516-1.909-1.172-3.652-2.253,2.479-1.533,4.3-2.76,6.212-3.826,28.937-16.146,57.85-32.337,86.9-48.273,2.19-1.2,5.968-1.678,8.037-.613,32.548,16.755,64.938,33.816,97.355,50.824a33.014,33.014,0,0,1,2.937,2.069" transform="translate(-105.128 -304.58)" fill="none" stroke="#fd843f" stroke-width="1"/>
        <path id="Path_21717" data-name="Path 21717" d="M344.273,71.179c-13.362,6.362-25.6,12.448-38.116,17.9-2.184.951-5.827-.159-8.305-1.343Q246.089,63.022,194.52,37.9c-4.167-2.034-7.427-2.135-11.653-.052-34.091,16.8-68.34,33.289-102.446,50.064-3.92,1.928-7.009,2.206-10.972.089-10.6-5.664-21.458-10.862-33.218-16.748,2.592-1.452,4.263-2.52,6.04-3.365Q112.607,34.47,183.035,1.244c2.879-1.35,7.376-1.741,10.151-.471,49.095,22.48,98.04,45.285,147.01,68.035,1.013.471,1.942,1.121,4.077,2.371" transform="translate(-21.857 0)" fill="none" stroke="#fd843f" stroke-width="1"/>
      </g>
    </g>
    <g id="Group_165279" data-name="Group 165279" transform="translate(5.139 20.932)">
      <path id="Path_88089" data-name="Path 88089" d="M-3669.035,12516.95s44.887-58.107,94.533-53.186,85.223,53.186,85.223,53.186-45.358,52.286-95.521,48.54S-3669.035,12516.95-3669.035,12516.95Z" transform="translate(4522.067 -10528.469)" fill="#fff"/>
      <g id="Group_165278" data-name="Group 165278" transform="translate(842.5 1927)">
        <g id="Group_165275" data-name="Group 165275" transform="translate(0 0)" clip-path="url(#clip-path-2)">
          <path id="Path_88087" data-name="Path 88087" d="M100.212,117.25h-.276c-22.351-.078-46.406-9.418-69.567-27.011A180.65,180.65,0,0,1,1.91,63.506L0,61.159l1.81-2.425A189.824,189.824,0,0,1,30.43,29.412C53.653,10.166,77.737,0,100.081,0h.255c22.419.075,46.524,10.415,69.707,29.893A189.951,189.951,0,0,1,198.455,59.41l1.795,2.438-1.928,2.335A180.435,180.435,0,0,1,169.68,90.716c-23.18,17.361-47.2,26.533-69.468,26.533M9.964,60.944c8.933,9.974,46.192,48.393,89.993,48.542h.261c43.757,0,81.093-38.016,90.07-47.918-8.716-10.8-46.077-53.657-89.974-53.806h-.239c-43.857,0-81.342,42.453-90.111,53.181" transform="translate(0 0.001)" fill="none" stroke="#fd843f" stroke-width="2"/>
          <path id="Path_88088" data-name="Path 88088" d="M45.319,6.075a25.793,25.793,0,1,0,25.705,25.88A25.79,25.79,0,0,0,45.319,6.075m-.133,38.784A12.992,12.992,0,1,1,58.223,31.913,12.99,12.99,0,0,1,45.187,44.859" transform="translate(54.893 26.757)" fill="#fd843f"/>
        </g>
      </g>
    </g>
    <g id="Group_165280" data-name="Group 165280">
      <path id="Path_88091" data-name="Path 88091" d="M0,0V75.3" transform="translate(947.764 1751.225)" fill="none" stroke="#fd843f" stroke-width="1" stroke-dasharray="2 2"/>
      <path id="Path_88090" data-name="Path 88090" d="M16.393,8.647A7.746,7.746,0,1,1,8.647.9a7.746,7.746,0,0,1,7.746,7.746" transform="translate(939.117 1742.578)" fill="#fd843f"/>
    </g>
    <g id="Group_165281" data-name="Group 165281" transform="translate(2216.99 168.714) rotate(60)">
      <path id="Path_88091-2" data-name="Path 88091" d="M0,0V75.3" transform="translate(947.764 1751.225)" fill="none" stroke="#fd843f" stroke-width="1" stroke-dasharray="2 2"/>
      <path id="Path_88090-2" data-name="Path 88090" d="M16.393,8.647A7.746,7.746,0,1,1,8.647.9a7.746,7.746,0,0,1,7.746,7.746" transform="translate(939.117 1742.578)" fill="#fd843f"/>
    </g>
    <g id="Group_165282" data-name="Group 165282" transform="translate(797.847 1896.057) rotate(120)">
      <path id="Path_88091-3" data-name="Path 88091" d="M0,75.3V0" transform="translate(7.746 0)" fill="none" stroke="#fd843f" stroke-width="1" stroke-dasharray="2 2"/>
      <path id="Path_88090-3" data-name="Path 88090" d="M15.492,7.746a7.746,7.746,0,1,0-7.746,7.746,7.746,7.746,0,0,0,7.746-7.746" transform="translate(0 67.554)" fill="#fd843f"/>
    </g>
    <g id="Group_165283" data-name="Group 165283" transform="translate(1895.527 4013.111) rotate(180)">
      <path id="Path_88091-4" data-name="Path 88091" d="M0,0V75.3" transform="translate(947.764 1751.225)" fill="none" stroke="#fd843f" stroke-width="1" stroke-dasharray="2 2"/>
      <path id="Path_88090-4" data-name="Path 88090" d="M16.393,8.647A7.746,7.746,0,1,1,8.647.9a7.746,7.746,0,0,1,7.746,7.746" transform="translate(939.117 1742.578)" fill="#fd843f"/>
    </g>
    <g id="Group_165284" data-name="Group 165284" transform="translate(-330.281 3837.399) rotate(-120)">
      <path id="Path_88091-5" data-name="Path 88091" d="M0,0V75.3" transform="translate(947.764 1751.225)" fill="none" stroke="#fd843f" stroke-width="1" stroke-dasharray="2 2"/>
      <path id="Path_88090-5" data-name="Path 88090" d="M16.393,8.647A7.746,7.746,0,1,1,8.647.9a7.746,7.746,0,0,1,7.746,7.746" transform="translate(939.117 1742.578)" fill="#fd843f"/>
    </g>
    <g id="Group_165285" data-name="Group 165285" transform="translate(1114 2117.057) rotate(-60)">
      <path id="Path_88091-6" data-name="Path 88091" d="M0,75.3V0" transform="translate(7.746 0)" fill="none" stroke="#fd843f" stroke-width="1" stroke-dasharray="2 2"/>
      <path id="Path_88090-6" data-name="Path 88090" d="M15.492,7.746a7.746,7.746,0,1,0-7.746,7.746,7.746,7.746,0,0,0,7.746-7.746" transform="translate(0 67.554)" fill="#fd843f"/>
    </g>
  </g>
</svg>
